# xmcd
#
# Track frame offsets:
#	150
#	20365
#	50188
#	62636
#	92415
#	121718
#	136708
#	154253
#	166061
#	193994
#
# Disc length: 2909 seconds
#
# Revision: 0
# Processed by: cddbd v1.4PL0 Copyright (c) Steve Scherf et al.
# Submitted via: dBpowerAMP V4.0
#
DISCID=7c0b5b0a
DTITLE=Buddy Reed And Th' Rip It Ups - Livin' It
DYEAR=1900
DGENRE=
TTITLE0=Play On
TTITLE1=Blow Wind Blow
TTITLE2=Brett's Boogie
TTITLE3=Booger Head
TTITLE4=You Don't Love Me
TTITLE5=Rippin - With Reed
TTITLE6=What I Got
TTITLE7=Long Long Time
TTITLE8=Love My Baby
TTITLE9=Sugar Bee
EXTD=
EXTT0=
EXTT1=
EXTT2=
EXTT3=
EXTT4=
EXTT5=
EXTT6=
EXTT7=
EXTT8=
EXTT9=
PLAYORDER=
